{  "asset": {    "version": "2.0",    "generator": "THREE.GLTFExporter"  },  "scenes": [    {      "name": "AuxScene",      "nodes": [        1      ]    }  ],  "scene": 0,  "nodes": [    {      "mesh": 0    },    {      "children": [        0      ]    }  ],  "bufferViews": [    {      "buffer": 0,      "byteOffset": 0,      "byteLength": 171936,      "target": 34962,      "byteStride": 12    },    {      "buffer": 0,      "byteOffset": 171936,      "byteLength": 171936,      "target": 34962,      "byteStride": 12    },    {      "buffer": 0,      "byteOffset": 343872,      "byteLength": 114624,      "target": 34962,      "byteStride": 8    }  ],  "buffers": [    {      "byteLength": 458496,      "uri": "data:application/octet-stream;base64,"    }  ],  "accessors": [    {      "bufferView": 0,      "componentType": 5126,      "count": 14328,      "max": [        22.55228042602539,        4.304769039154053,        30.02993392944336      ],      "min": [        -22.55228042602539,        -4.3047685623168945,        -30.02993392944336      ],      "type": "VEC3"    },    {      "bufferView": 1,      "componentType": 5126,      "count": 14328,      "max": [        1,        0.999114990234375,        0.99993896484375      ],      "min": [        -1,        -0.99993896484375,        -0.9998779296875      ],      "type": "VEC3"    },    {      "bufferView": 2,      "componentType": 5126,      "count": 14328,      "max": [        0.8749961853027344,        1      ],      "min": [        0,        0      ],      "type": "VEC2"    }  ],  "materials": [    {      "pbrMetallicRoughness": {        "metallicFactor": 0.5,        "roughnessFactor": 0.5      },      "doubleSided": true,      "name": "mat0"    }  ],  "meshes": [    {      "primitives": [        {          "mode": 4,          "attributes": {            "POSITION": 0,            "NORMAL": 1,            "TEXCOORD_0": 2          },          "material": 0        }      ]    }  ]}